<svg width="3193" height="3185" viewBox="0 0 3193 3185" fill="none" xmlns="http://www.w3.org/2000/svg">
<path d="M628.163 924.111C629.029 840.051 650.28 767.167 710.255 707.664C769.207 649.262 841.696 629.271 920.876 627.854C925.756 603.455 929.062 582.125 934.492 561.267C962.355 454.067 1027.6 375.044 1121.11 318.531C1148.26 302.081 1177.54 288.858 1206.51 275.714C1321.26 223.531 1429.09 160.564 1521.65 73.9853C1546.36 50.9238 1568.87 25.5014 1593.59 0C1609.49 17.3945 1624.2 34.6316 1640.1 50.688C1730.22 141.753 1837.11 208.34 1952.18 262.963C1988.15 280.043 2025.06 295.706 2059.38 315.619C2160.67 374.414 2228.76 459.34 2254.73 575.198C2258.43 591.648 2260.87 608.335 2264.41 627.303C2347.53 629.664 2421.59 649.892 2482.27 710.655C2542.17 770.552 2562 843.671 2565.86 924.662C2585.93 928.361 2603.88 930.88 2621.43 935.051C2733.03 961.419 2815.83 1027.06 2874.08 1124.19C2892.18 1154.33 2906.66 1186.76 2921.46 1218.79C2972.3 1329.06 3033.54 1432.64 3116.73 1522.06C3140.58 1547.64 3166.79 1571.01 3193 1596.51C3174.9 1613.12 3156.95 1628.63 3140.19 1645.31C3045.19 1739.84 2977.03 1852.39 2921.46 1973.29C2909.1 2000.13 2897.14 2027.36 2882.66 2053.1C2817.88 2167.7 2723.27 2241.37 2590.97 2262.23C2584.2 2263.25 2577.51 2264.75 2570.82 2266.16C2569.87 2266.4 2569.17 2267.58 2568.38 2268.29C2557.99 2464.74 2439.22 2563.84 2273.3 2565.72C2271.42 2571.31 2268.19 2577.3 2267.32 2583.67C2249.61 2713.85 2179.49 2808.46 2068.67 2874.81C2042.38 2890.55 2014.2 2903.22 1986.26 2915.98C1879.93 2964.3 1779.65 3022.31 1691.26 3099.29C1658.68 3127.62 1626.57 3156.43 1594.22 3185C1575.09 3165.32 1551.72 3139.03 1526.06 3115.19C1434.13 3029.63 1326.93 2967.84 1213.51 2915.58C1177.38 2898.97 1141.1 2881.58 1108.12 2859.7C1013.28 2797.05 954.012 2709.6 934.335 2596.66C932.603 2586.66 930.714 2576.74 928.432 2564.15C846.97 2562.34 774.795 2539.28 713.64 2482.06C651.303 2423.74 630.839 2351.09 628.242 2268.13C617.931 2265.77 608.408 2262.94 598.727 2261.36C477.281 2241.76 386.847 2176.28 322.7 2073.33C304.125 2043.5 289.25 2011.23 274.61 1979.19C223.135 1866.64 161.193 1760.86 76.5823 1669.71C52.8126 1644.05 26.5244 1620.76 0 1594.94C16.3711 1580.14 32.6635 1566.29 47.9328 1551.41C131.363 1470.19 194.171 1374.24 246.354 1270.9C261.702 1240.44 275.161 1208.96 289.643 1178.02C318.056 1117.58 354.813 1063.19 405.815 1019.19C460.595 971.966 523.483 941.899 595.185 930.723C605.26 929.148 615.177 926.708 628.321 924.032L628.163 924.111Z" fill="#424A29"/>
<mask id="path-2-inside-1_606_232" fill="white">
<path d="M1630.67 837.666C1587.73 842.066 1542.67 851.132 1493.73 865.266C1482.27 868.466 1490.53 871.399 1502.27 868.332C1516.53 864.466 1536.53 863.266 1554.67 864.999C1653.87 874.199 1769.33 943.666 1813.33 1020.47C1825.73 1042.2 1830.67 1058.73 1831.6 1081.67C1832.27 1096.6 1831.87 1100.73 1829.47 1110.33C1828 1116.6 1824.8 1125.13 1822.67 1129.4C1816.93 1140.2 1814.67 1150.33 1814.67 1163.8C1814.67 1177.93 1818.27 1192.73 1824.67 1204.73L1829.33 1213.67L1724.4 1318.73C1666.53 1376.6 1611.07 1431.67 1600.93 1441.27L1582.53 1458.73L1574.27 1450.6C1569.6 1446.07 1565.33 1442.33 1564.53 1442.33C1563.87 1442.33 1559.73 1445.93 1555.33 1450.33C1550.93 1454.73 1546.67 1458.33 1545.73 1458.33C1543.73 1458.33 1525.87 1441.93 1435.07 1356.07L1362.93 1287.8L1364.13 1282.07C1368.8 1261.53 1389.2 1171.13 1402.13 1114.47C1410.53 1077.53 1416.93 1046.87 1416.4 1046.33C1415.87 1045.8 1364.4 1012.33 1302 972.066C1239.73 931.666 1172.93 888.466 1153.6 875.799C1134.27 863.266 1118 852.999 1117.6 852.999C1117.07 852.999 1097.47 872.199 1074 895.666L1031.33 938.332L1119.07 1026.07C1167.2 1074.2 1206.67 1114.2 1206.67 1114.73C1206.67 1117 1173.33 1232.2 1172.4 1233.13C1171.73 1233.67 1144.93 1241.67 1112.67 1250.87L1054 1267.53L966.667 1180.2C918.667 1132.2 878.667 1093 878 1093C875.734 1093 798.667 1170.87 798.667 1173.27C798.667 1174.47 824 1211 854.8 1254.6C885.734 1298.07 931.067 1362.6 955.734 1397.93C980.267 1433.4 1000.8 1462.33 1001.2 1462.33C1001.6 1462.33 1055.07 1452.2 1120 1439.8C1209.87 1422.73 1238.4 1417.67 1239.87 1418.87C1242 1420.47 1337.73 1522.33 1355.73 1542.07C1361.73 1548.73 1366.67 1555 1366.67 1555.93C1366.67 1556.87 1363.07 1560.87 1358.67 1564.73C1354.27 1568.6 1350.67 1572.47 1350.67 1573.27C1350.67 1574.07 1354.4 1578.87 1358.8 1583.93L1367.07 1593.13L1349.87 1610.2C1340.4 1619.53 1228.93 1726.73 1102 1848.2C975.067 1969.8 865.067 2075.67 857.334 2083.4C841.6 2099.4 834.667 2110.73 831.867 2124.73C828.8 2140.47 834.134 2157.8 847.467 2175.67C855.467 2186.47 959.867 2291.8 973.067 2302.47C984.4 2311.67 1003.6 2321.4 1016 2324.2C1036.27 2329 1057.47 2325.93 1072.67 2316.07C1078.13 2312.33 1144.53 2243.4 1313.33 2065.67C1441.47 1930.73 1550.27 1816.47 1555.2 1811.67L1564 1803.13L1572.4 1811.4C1576.93 1815.93 1581.33 1819.67 1582 1819.67C1582.67 1819.67 1587.07 1815.93 1591.6 1811.4L1600 1803.13L1607.47 1810.33C1611.6 1814.33 1717.33 1926.6 1842.4 2059.67C1967.47 2192.73 2073.33 2305.27 2077.87 2309.53C2096.4 2327.4 2117.87 2340.47 2138.67 2346.33C2153.07 2350.47 2176.13 2351.4 2190.67 2348.47C2242.67 2337.93 2285.87 2293.53 2295.47 2241C2301.2 2209 2292.13 2173.8 2271.47 2148.73C2267.33 2143.8 2149.07 2031.13 2008.4 1898.2C1867.73 1765.27 1743.47 1647.53 1732.27 1636.47C1721.07 1625.4 1711.33 1616.07 1710.67 1615.93C1707.6 1614.87 1709.87 1610.47 1717.73 1602.6L1726 1594.07L1716.8 1585.53L1707.73 1577L1725.07 1558.6C1734.67 1548.6 1789.33 1493.53 1846.53 1436.47L1950.4 1332.6L1960.27 1340.07C1987.87 1361.13 2014 1366.6 2050.8 1358.87C2094.4 1349.8 2118.93 1363.13 2165.07 1420.87C2174.13 1432.07 2182.13 1442.33 2182.93 1443.67C2184.27 1445.8 2182.93 1447.8 2173.2 1458.07C2157.2 1475.13 2152.13 1486.47 2152 1505.53C2152 1525.13 2159.2 1541.67 2174.67 1557.13C2197.87 1580.2 2230.13 1586.2 2256 1572.2C2264.8 1567.4 2385.33 1446.47 2389.47 1438.33C2393.87 1429.53 2396 1420.2 2396 1409.67C2396 1390.07 2388.93 1373.93 2373.33 1358.2C2351.33 1335.93 2322.53 1330.07 2296.27 1342.33L2287.33 1346.6L2281.47 1340.07C2273.6 1331.4 2261.73 1315.8 2254.27 1304.07C2246.67 1292.33 2241.6 1282.33 2230 1256.33C2225.07 1245.27 2218.67 1231.53 2215.6 1225.67C2204.93 1205.13 2185.2 1177.67 2161.47 1150.33C2147.73 1134.6 1972.4 955.399 1954.27 938.599C1894.27 883.132 1825.07 850.866 1741.2 838.866C1720 835.932 1654.8 835.266 1630.67 837.666ZM2190.8 2173C2218.4 2182.33 2234.4 2208.2 2230.53 2237C2224.8 2278.2 2176.67 2299.67 2141.33 2276.87C2128.53 2268.6 2123.47 2258.33 2121.73 2237.4C2121.2 2229.4 2120.4 2226.33 2119.2 2226.33C2118.13 2226.33 2117.33 2225.4 2117.33 2224.33C2117.33 2223.27 2118.27 2222.33 2119.33 2222.33C2120.4 2222.33 2121.33 2221.67 2121.33 2221C2121.33 2220.2 2120.67 2219.67 2119.87 2219.67C2117.47 2219.67 2119.6 2209.8 2123.47 2202.07C2127.47 2194.33 2136.93 2183.67 2144.8 2178.33C2156.53 2170.2 2175.87 2168.07 2190.8 2173Z"/>
</mask>
<path d="M1630.67 837.666C1587.73 842.066 1542.67 851.132 1493.73 865.266C1482.27 868.466 1490.53 871.399 1502.27 868.332C1516.53 864.466 1536.53 863.266 1554.67 864.999C1653.87 874.199 1769.33 943.666 1813.33 1020.47C1825.73 1042.2 1830.67 1058.73 1831.6 1081.67C1832.27 1096.6 1831.87 1100.73 1829.47 1110.33C1828 1116.6 1824.8 1125.13 1822.67 1129.4C1816.93 1140.2 1814.67 1150.33 1814.67 1163.8C1814.67 1177.93 1818.27 1192.73 1824.67 1204.73L1829.33 1213.67L1724.4 1318.73C1666.53 1376.6 1611.07 1431.67 1600.93 1441.27L1582.53 1458.73L1574.27 1450.6C1569.6 1446.07 1565.33 1442.33 1564.53 1442.33C1563.87 1442.33 1559.73 1445.93 1555.33 1450.33C1550.93 1454.73 1546.67 1458.33 1545.73 1458.33C1543.73 1458.33 1525.87 1441.93 1435.07 1356.07L1362.93 1287.8L1364.13 1282.07C1368.8 1261.53 1389.2 1171.13 1402.13 1114.47C1410.53 1077.53 1416.93 1046.87 1416.4 1046.33C1415.87 1045.8 1364.4 1012.33 1302 972.066C1239.73 931.666 1172.93 888.466 1153.6 875.799C1134.27 863.266 1118 852.999 1117.6 852.999C1117.07 852.999 1097.47 872.199 1074 895.666L1031.33 938.332L1119.07 1026.07C1167.2 1074.2 1206.67 1114.2 1206.67 1114.73C1206.67 1117 1173.33 1232.2 1172.4 1233.13C1171.73 1233.67 1144.93 1241.67 1112.67 1250.87L1054 1267.53L966.667 1180.2C918.667 1132.2 878.667 1093 878 1093C875.734 1093 798.667 1170.87 798.667 1173.27C798.667 1174.47 824 1211 854.8 1254.6C885.734 1298.07 931.067 1362.6 955.734 1397.93C980.267 1433.4 1000.8 1462.33 1001.2 1462.33C1001.6 1462.33 1055.07 1452.2 1120 1439.8C1209.87 1422.73 1238.4 1417.67 1239.87 1418.87C1242 1420.47 1337.73 1522.33 1355.73 1542.07C1361.73 1548.73 1366.67 1555 1366.67 1555.93C1366.67 1556.87 1363.07 1560.87 1358.67 1564.73C1354.27 1568.6 1350.67 1572.47 1350.67 1573.27C1350.67 1574.07 1354.4 1578.87 1358.8 1583.93L1367.07 1593.13L1349.87 1610.2C1340.4 1619.53 1228.93 1726.73 1102 1848.2C975.067 1969.8 865.067 2075.67 857.334 2083.4C841.6 2099.4 834.667 2110.73 831.867 2124.73C828.8 2140.47 834.134 2157.8 847.467 2175.67C855.467 2186.47 959.867 2291.8 973.067 2302.47C984.4 2311.67 1003.6 2321.4 1016 2324.2C1036.27 2329 1057.47 2325.93 1072.67 2316.07C1078.13 2312.33 1144.53 2243.4 1313.33 2065.67C1441.47 1930.73 1550.27 1816.47 1555.2 1811.67L1564 1803.13L1572.4 1811.4C1576.93 1815.93 1581.33 1819.67 1582 1819.67C1582.67 1819.67 1587.07 1815.93 1591.6 1811.4L1600 1803.13L1607.47 1810.33C1611.6 1814.33 1717.33 1926.6 1842.4 2059.67C1967.47 2192.73 2073.33 2305.27 2077.87 2309.53C2096.4 2327.4 2117.87 2340.47 2138.67 2346.33C2153.07 2350.47 2176.13 2351.4 2190.67 2348.47C2242.67 2337.93 2285.87 2293.53 2295.47 2241C2301.2 2209 2292.13 2173.8 2271.47 2148.73C2267.33 2143.8 2149.07 2031.13 2008.4 1898.2C1867.73 1765.27 1743.47 1647.53 1732.27 1636.47C1721.07 1625.4 1711.33 1616.07 1710.67 1615.93C1707.6 1614.87 1709.87 1610.47 1717.73 1602.6L1726 1594.07L1716.8 1585.53L1707.73 1577L1725.07 1558.6C1734.67 1548.6 1789.33 1493.53 1846.53 1436.47L1950.4 1332.6L1960.27 1340.07C1987.87 1361.13 2014 1366.6 2050.8 1358.87C2094.4 1349.8 2118.93 1363.13 2165.07 1420.87C2174.13 1432.07 2182.13 1442.33 2182.93 1443.67C2184.27 1445.8 2182.93 1447.8 2173.2 1458.07C2157.2 1475.13 2152.13 1486.47 2152 1505.53C2152 1525.13 2159.2 1541.67 2174.67 1557.13C2197.87 1580.2 2230.13 1586.2 2256 1572.2C2264.8 1567.4 2385.33 1446.47 2389.47 1438.33C2393.87 1429.53 2396 1420.2 2396 1409.67C2396 1390.07 2388.93 1373.93 2373.33 1358.2C2351.33 1335.93 2322.53 1330.07 2296.27 1342.33L2287.33 1346.6L2281.47 1340.07C2273.6 1331.4 2261.73 1315.8 2254.27 1304.07C2246.67 1292.33 2241.6 1282.33 2230 1256.33C2225.07 1245.27 2218.67 1231.53 2215.6 1225.67C2204.93 1205.13 2185.2 1177.67 2161.47 1150.33C2147.73 1134.6 1972.4 955.399 1954.27 938.599C1894.27 883.132 1825.07 850.866 1741.2 838.866C1720 835.932 1654.8 835.266 1630.67 837.666ZM2190.8 2173C2218.4 2182.33 2234.4 2208.2 2230.53 2237C2224.8 2278.2 2176.67 2299.67 2141.33 2276.87C2128.53 2268.6 2123.47 2258.33 2121.73 2237.4C2121.2 2229.4 2120.4 2226.33 2119.2 2226.33C2118.13 2226.33 2117.33 2225.4 2117.33 2224.33C2117.33 2223.27 2118.27 2222.33 2119.33 2222.33C2120.4 2222.33 2121.33 2221.67 2121.33 2221C2121.33 2220.2 2120.67 2219.67 2119.87 2219.67C2117.47 2219.67 2119.6 2209.8 2123.47 2202.07C2127.47 2194.33 2136.93 2183.67 2144.8 2178.33C2156.53 2170.2 2175.87 2168.07 2190.8 2173Z" fill="#FEE7C7" fill-opacity="0.5" stroke="#4A2F29" stroke-opacity="0.15" stroke-width="60" mask="url(#path-2-inside-1_606_232)"/>
</svg>
