<svg xmlns="http://www.w3.org/2000/svg" viewBox="0 0 512 512" width="512" height="512">
<rect width="512" height="512" rx="64" fill="#f3ebd4"/>
<path fill="#2f5132" fill-rule="evenodd" d="M 470.000 256.000 L 463.277 309.220 L 485.661 344.159 L 447.178 410.813 L 405.728 408.897 L 363.000 441.329 L 313.549 462.117 L 294.483 498.971 L 217.517 498.971 L 198.451 462.117 L 149.000 441.329 L 106.272 408.897 L 64.822 410.813 L 26.339 344.159 L 48.723 309.220 L 42.000 256.000 L 48.723 202.780 L 26.339 167.841 L 64.822 101.187 L 106.272 103.103 L 149.000 70.671 L 198.451 49.883 L 217.517 13.029 L 294.483 13.029 L 313.549 49.883 L 363.000 70.671 L 405.728 103.103 L 447.178 101.187 L 485.661 167.841 L 463.277 202.780 Z M 448.000 256.000 A 192.000 192.000 0 1 0 64.000 256.000 A 192.000 192.000 0 1 0 448.000 256.000 Z"/>
<circle cx="256.000" cy="256.000" r="176.000" fill="none" stroke="#2f5132" stroke-width="4"/>
<path d="M 287.549 310.645 L 277.046 312.516 L 266.436 313.637 L 255.774 314.000 L 245.112 313.604 L 234.506 312.452 L 224.009 310.549 L 213.673 307.904 L 203.551 304.532 L 193.695 300.448 L 184.154 295.674 L 174.977 290.235 L 166.209 284.156 L 157.895 277.470 L 150.078 270.210 L 142.797 262.412 L 136.088 254.117 L 129.986 245.366 L 124.521 236.203 L 119.721 226.675 L 115.611 216.830 L 112.211 206.717" fill="none" stroke="#2f5132" stroke-width="13" stroke-linecap="round" stroke-linejoin="round"/>
<path d="M 224.451 310.645 L 217.578 302.484 L 211.303 293.856 L 205.658 284.804 L 200.669 275.373 L 196.364 265.612 L 192.764 255.569 L 189.886 245.296 L 187.746 234.844 L 186.354 224.267 L 185.718 213.617 L 185.840 202.949 L 186.720 192.317 L 188.354 181.774 L 190.733 171.374 L 193.845 161.169 L 197.675 151.212 L 202.202 141.551 L 207.405 132.237 L 213.257 123.317 L 219.728 114.835 L 226.786 106.834" fill="none" stroke="#2f5132" stroke-width="13" stroke-linecap="round" stroke-linejoin="round"/>
<path d="M 192.902 256.000 L 196.533 245.968 L 200.867 236.220 L 205.884 226.804 L 211.557 217.769 L 217.858 209.160 L 224.755 201.020 L 232.213 193.392 L 240.195 186.312 L 248.659 179.818 L 257.564 173.942 L 266.864 168.714 L 276.512 164.160 L 286.459 160.304 L 296.655 157.164 L 307.048 154.757 L 317.587 153.095 L 328.217 152.186 L 338.884 152.034 L 349.536 152.642 L 360.117 154.005 L 370.574 156.117" fill="none" stroke="#2f5132" stroke-width="13" stroke-linecap="round" stroke-linejoin="round"/>
<path d="M 224.451 201.355 L 234.954 199.484 L 245.564 198.363 L 256.226 198.000 L 266.888 198.396 L 277.494 199.548 L 287.991 201.451 L 298.327 204.096 L 308.449 207.468 L 318.305 211.552 L 327.846 216.326 L 337.023 221.765 L 345.791 227.844 L 354.105 234.530 L 361.922 241.790 L 369.203 249.588 L 375.912 257.883 L 382.014 266.634 L 387.479 275.797 L 392.279 285.325 L 396.389 295.170 L 399.789 305.283" fill="none" stroke="#2f5132" stroke-width="13" stroke-linecap="round" stroke-linejoin="round"/>
<path d="M 287.549 201.355 L 294.422 209.516 L 300.697 218.144 L 306.342 227.196 L 311.331 236.627 L 315.636 246.388 L 319.236 256.431 L 322.114 266.704 L 324.254 277.156 L 325.646 287.733 L 326.282 298.383 L 326.160 309.051 L 325.280 319.683 L 323.646 330.226 L 321.267 340.626 L 318.155 350.831 L 314.325 360.788 L 309.798 370.449 L 304.595 379.763 L 298.743 388.683 L 292.272 397.165 L 285.214 405.166" fill="none" stroke="#2f5132" stroke-width="13" stroke-linecap="round" stroke-linejoin="round"/>
<path d="M 319.098 256.000 L 315.467 266.032 L 311.133 275.780 L 306.116 285.196 L 300.443 294.231 L 294.142 302.840 L 287.245 310.980 L 279.787 318.608 L 271.805 325.688 L 263.341 332.182 L 254.436 338.058 L 245.136 343.286 L 235.488 347.840 L 225.541 351.696 L 215.345 354.836 L 204.952 357.243 L 194.413 358.905 L 183.783 359.814 L 173.116 359.966 L 162.464 359.358 L 151.883 357.995 L 141.426 355.883" fill="none" stroke="#2f5132" stroke-width="13" stroke-linecap="round" stroke-linejoin="round"/>
<path d="M 224.451 310.645 L 192.902 256.000 L 224.451 201.355 L 287.549 201.355 L 319.098 256.000 L 287.549 310.645 Z" fill="none" stroke="#2f5132" stroke-width="13" stroke-linejoin="round"/>
</svg>