<svg width="565" height="514" viewBox="0 0 565 514" fill="none" xmlns="http://www.w3.org/2000/svg">
<mask id="path-1-inside-1_601_25" fill="white">
<path d="M360.904 11.2099C365.244 6.87043 369.958 3.13398 374.942 -1.63893e-05L422.039 -1.84479e-05C427.398 1.25336e-05 432.35 2.85899 435.029 7.49998L564.732 232.153L540.359 256.527L564.915 281.084L435.029 506.053C432.35 510.694 427.398 513.553 422.039 513.553L375.748 513.553C370.466 510.319 365.478 506.417 360.905 501.845L345.437 486.376L351.829 481.265C358.127 476.229 365.15 472.173 372.66 469.237L389.365 462.706C424.199 449.086 444.947 413.149 439.325 376.173L436.628 358.438C435.909 353.711 435.62 348.936 435.754 344.17C409.71 350.256 381.208 343.148 360.904 322.845L345.437 307.376L351.829 302.265C358.127 297.229 365.149 293.173 372.659 290.237L389.364 283.706C403.749 278.082 415.732 268.651 424.447 256.913C415.732 245.176 403.75 235.744 389.365 230.12L372.66 223.589C365.15 220.653 358.127 216.598 351.829 211.562L345.008 206.107L360.905 190.21C381.203 169.912 409.694 162.803 435.732 168.88C435.65 164.372 435.948 159.858 436.628 155.388L439.324 137.653C444.946 100.677 424.198 64.7395 389.364 51.1201L372.659 44.5889C365.15 41.6527 358.127 37.598 351.829 32.5625L345.007 27.1074L360.904 11.2099ZM270.359 256.527L224.728 210.895L237.899 200.361C239.78 198.858 241.713 197.452 243.688 196.142C232.502 167.459 238.491 133.623 261.655 110.458L282.474 89.6406L224.727 31.8945L237.899 21.3623C267.111 -1.9954 308.607 -1.99653 337.819 21.3603L345.007 27.1074L282.474 89.6406L303.291 110.458C325.084 132.251 331.673 163.49 323.062 190.996C328.226 193.528 333.179 196.649 337.82 200.36L345.008 206.107L294.587 256.527L345.437 307.376L337.818 313.467C333.239 317.128 328.358 320.215 323.27 322.729C331.565 350.07 324.907 380.979 303.292 402.595L282.474 423.413L345.437 486.376L337.819 492.467C308.608 515.823 267.112 515.823 237.9 492.466L224.298 481.59L282.474 423.413L261.656 402.596C238.658 379.597 232.59 346.08 243.451 317.53C241.557 316.265 239.705 314.91 237.899 313.466L224.298 302.59L270.359 256.527ZM24.5869 256.527L0.182605 232.124L129.869 7.49999C132.549 2.85901 137.5 2.81526e-05 142.859 -6.24458e-06L190.003 -8.30529e-06C194.987 3.13396 199.703 6.86952 204.042 11.209L224.727 31.8945L223.888 32.5664C217.592 37.5996 210.571 41.6517 203.063 44.5869L186.354 51.1201C151.521 64.7394 130.772 100.677 136.395 137.653L139.091 155.388C139.682 159.279 139.983 163.202 139.997 167.127C162.885 164.991 186.517 172.684 204.042 190.209L224.728 210.895L223.888 211.565C217.592 216.599 210.571 220.652 203.064 223.587L186.354 230.12C171.969 235.745 159.986 245.176 151.27 256.914C159.986 268.652 171.97 278.082 186.354 283.706L203.06 290.237C210.569 293.173 217.592 297.229 223.89 302.265L224.298 302.59L204.042 322.846C186.517 340.37 162.883 348.064 139.995 345.928C140.02 350.109 139.722 354.293 139.092 358.438L136.395 376.173C130.772 413.149 151.521 449.087 186.354 462.706L203.061 469.237C210.57 472.173 217.593 476.228 223.891 481.264L224.298 481.59L204.042 501.846C199.47 506.418 194.481 510.319 189.199 513.553L142.859 513.553C137.5 513.553 132.549 510.694 129.869 506.053L-1.01603e-05 281.113L24.5869 256.527Z"/>
</mask>
<path d="M360.904 11.2099C365.244 6.87043 369.958 3.13398 374.942 -1.63893e-05L422.039 -1.84479e-05C427.398 1.25336e-05 432.35 2.85899 435.029 7.49998L564.732 232.153L540.359 256.527L564.915 281.084L435.029 506.053C432.35 510.694 427.398 513.553 422.039 513.553L375.748 513.553C370.466 510.319 365.478 506.417 360.905 501.845L345.437 486.376L351.829 481.265C358.127 476.229 365.15 472.173 372.66 469.237L389.365 462.706C424.199 449.086 444.947 413.149 439.325 376.173L436.628 358.438C435.909 353.711 435.62 348.936 435.754 344.17C409.71 350.256 381.208 343.148 360.904 322.845L345.437 307.376L351.829 302.265C358.127 297.229 365.149 293.173 372.659 290.237L389.364 283.706C403.749 278.082 415.732 268.651 424.447 256.913C415.732 245.176 403.75 235.744 389.365 230.12L372.66 223.589C365.15 220.653 358.127 216.598 351.829 211.562L345.008 206.107L360.905 190.21C381.203 169.912 409.694 162.803 435.732 168.88C435.65 164.372 435.948 159.858 436.628 155.388L439.324 137.653C444.946 100.677 424.198 64.7395 389.364 51.1201L372.659 44.5889C365.15 41.6527 358.127 37.598 351.829 32.5625L345.007 27.1074L360.904 11.2099ZM270.359 256.527L224.728 210.895L237.899 200.361C239.78 198.858 241.713 197.452 243.688 196.142C232.502 167.459 238.491 133.623 261.655 110.458L282.474 89.6406L224.727 31.8945L237.899 21.3623C267.111 -1.9954 308.607 -1.99653 337.819 21.3603L345.007 27.1074L282.474 89.6406L303.291 110.458C325.084 132.251 331.673 163.49 323.062 190.996C328.226 193.528 333.179 196.649 337.82 200.36L345.008 206.107L294.587 256.527L345.437 307.376L337.818 313.467C333.239 317.128 328.358 320.215 323.27 322.729C331.565 350.07 324.907 380.979 303.292 402.595L282.474 423.413L345.437 486.376L337.819 492.467C308.608 515.823 267.112 515.823 237.9 492.466L224.298 481.59L282.474 423.413L261.656 402.596C238.658 379.597 232.59 346.08 243.451 317.53C241.557 316.265 239.705 314.91 237.899 313.466L224.298 302.59L270.359 256.527ZM24.5869 256.527L0.182605 232.124L129.869 7.49999C132.549 2.85901 137.5 2.81526e-05 142.859 -6.24458e-06L190.003 -8.30529e-06C194.987 3.13396 199.703 6.86952 204.042 11.209L224.727 31.8945L223.888 32.5664C217.592 37.5996 210.571 41.6517 203.063 44.5869L186.354 51.1201C151.521 64.7394 130.772 100.677 136.395 137.653L139.091 155.388C139.682 159.279 139.983 163.202 139.997 167.127C162.885 164.991 186.517 172.684 204.042 190.209L224.728 210.895L223.888 211.565C217.592 216.599 210.571 220.652 203.064 223.587L186.354 230.12C171.969 235.745 159.986 245.176 151.27 256.914C159.986 268.652 171.97 278.082 186.354 283.706L203.06 290.237C210.569 293.173 217.592 297.229 223.89 302.265L224.298 302.59L204.042 322.846C186.517 340.37 162.883 348.064 139.995 345.928C140.02 350.109 139.722 354.293 139.092 358.438L136.395 376.173C130.772 413.149 151.521 449.087 186.354 462.706L203.061 469.237C210.57 472.173 217.593 476.228 223.891 481.264L224.298 481.59L204.042 501.846C199.47 506.418 194.481 510.319 189.199 513.553L142.859 513.553C137.5 513.553 132.549 510.694 129.869 506.053L-1.01603e-05 281.113L24.5869 256.527Z" fill="#586040"/>
<path d="M360.904 11.2099L371.511 21.8165L371.511 21.8165L360.904 11.2099ZM374.942 -1.63893e-05L374.942 -15L370.619 -15L366.958 -12.6986L374.942 -1.63893e-05ZM422.039 -1.84479e-05L422.039 -15L422.039 -15L422.039 -1.84479e-05ZM435.029 7.49998L448.02 -1.95836e-05V-1.95836e-05L435.029 7.49998ZM564.732 232.153L575.339 242.76L583.478 234.621L577.723 224.653L564.732 232.153ZM540.359 256.527L529.753 245.921L519.147 256.527L529.753 267.134L540.359 256.527ZM564.915 281.084L577.905 288.584L583.66 278.616L575.522 270.478L564.915 281.084ZM435.029 506.053L448.02 513.553L448.02 513.553L435.029 506.053ZM422.039 513.553L422.039 528.553L422.039 528.553L422.039 513.553ZM375.748 513.553L367.916 526.346L371.521 528.553L375.748 528.553L375.748 513.553ZM360.905 501.845L350.299 512.451L350.299 512.451L360.905 501.845ZM351.829 481.265L361.196 492.98L361.197 492.98L351.829 481.265ZM372.66 469.237L367.198 455.267L367.198 455.267L372.66 469.237ZM389.365 462.706L394.827 476.676L394.827 476.676L389.365 462.706ZM439.325 376.173L454.155 373.918L454.155 373.917L439.325 376.173ZM436.628 358.438L421.798 360.693L421.798 360.694L436.628 358.438ZM435.754 344.17L450.748 344.591L451.294 325.134L432.341 329.563L435.754 344.17ZM360.904 322.845L350.297 333.451L350.298 333.451L360.904 322.845ZM351.829 302.265L361.196 313.98L361.197 313.98L351.829 302.265ZM372.659 290.237L367.197 276.267L367.197 276.267L372.659 290.237ZM389.364 283.706L394.826 297.676L394.826 297.676L389.364 283.706ZM424.447 256.913L436.49 265.855L443.13 256.913L436.49 247.971L424.447 256.913ZM389.365 230.12L394.827 216.15L394.827 216.15L389.365 230.12ZM372.66 223.589L367.198 237.559L367.198 237.559L372.66 223.589ZM351.829 211.562L342.461 223.277L342.461 223.278L351.829 211.562ZM360.905 190.21L371.512 200.817L371.512 200.817L360.905 190.21ZM435.732 168.88L432.323 183.487L451.083 187.866L450.73 168.605L435.732 168.88ZM436.628 155.388L451.457 157.642L451.458 157.642L436.628 155.388ZM439.324 137.653L424.495 135.399L424.495 135.399L439.324 137.653ZM389.364 51.1201L394.826 37.1499L394.826 37.1499L389.364 51.1201ZM372.659 44.5889L367.197 58.559L367.197 58.5591L372.659 44.5889ZM351.829 32.5625L361.197 20.8472L361.197 20.8472L351.829 32.5625ZM270.359 256.527L280.966 267.134L291.572 256.527L280.966 245.921L270.359 256.527ZM237.899 200.361L228.532 188.646L228.531 188.646L237.899 200.361ZM243.688 196.142L251.978 208.643L262.058 201.959L257.663 190.691L243.688 196.142ZM261.655 110.458L251.049 99.8512L251.049 99.8514L261.655 110.458ZM237.899 21.3623L247.267 33.078L247.267 33.0775L237.899 21.3623ZM337.819 21.3603L347.187 9.64497L347.187 9.64482L337.819 21.3603ZM303.291 110.458L313.898 99.8515L313.898 99.8514L303.291 110.458ZM323.062 190.996L308.748 186.515L304.902 198.798L316.458 204.464L323.062 190.996ZM337.82 200.36L347.188 188.645L347.188 188.645L337.82 200.36ZM294.587 256.527L283.98 245.921L273.373 256.527L283.98 267.134L294.587 256.527ZM337.818 313.467L328.451 301.751L328.451 301.751L337.818 313.467ZM323.27 322.729L316.626 309.28L305.223 314.913L308.916 327.084L323.27 322.729ZM303.292 402.595L313.899 413.201L313.899 413.201L303.292 402.595ZM337.819 492.467L347.187 504.182L347.187 504.182L337.819 492.467ZM237.9 492.466L247.268 480.75L247.268 480.75L237.9 492.466ZM261.656 402.596L272.263 391.989L272.263 391.989L261.656 402.596ZM243.451 317.53L257.471 322.864L261.72 311.696L251.784 305.058L243.451 317.53ZM237.899 313.466L228.532 325.181L228.532 325.181L237.899 313.466ZM24.5869 256.527L35.1933 267.134L45.8005 256.527L35.1933 245.921L24.5869 256.527ZM0.182605 232.124L-12.8078 224.624L-18.5628 234.592L-10.4238 242.731L0.182605 232.124ZM129.869 7.49999L116.879 -5.10893e-06L116.879 -5.10893e-06L129.869 7.49999ZM142.859 -6.24458e-06L142.859 -15L142.859 -15L142.859 -6.24458e-06ZM190.003 -8.30529e-06L197.987 -12.6986L194.327 -15L190.003 -15L190.003 -8.30529e-06ZM204.042 11.209L214.649 0.602652L214.649 0.602347L204.042 11.209ZM223.888 32.5664L233.254 44.2826L233.265 44.2741L223.888 32.5664ZM203.063 44.5869L197.601 30.6168L197.601 30.6168L203.063 44.5869ZM186.354 51.1201L191.817 65.0903L191.817 65.0902L186.354 51.1201ZM136.395 137.653L151.224 135.399L151.224 135.399L136.395 137.653ZM139.091 155.388L124.261 157.642L124.261 157.642L139.091 155.388ZM139.997 167.127L124.997 167.181L125.056 183.586L141.391 182.062L139.997 167.127ZM204.042 190.209L214.649 179.602V179.602L204.042 190.209ZM223.888 211.565L214.526 199.846L214.521 199.849L223.888 211.565ZM203.064 223.587L208.526 237.557L208.527 237.557L203.064 223.587ZM186.354 230.12L180.892 216.15L180.892 216.15L186.354 230.12ZM151.27 256.914L139.227 247.972L132.588 256.914L139.227 265.856L151.27 256.914ZM186.354 283.706L180.892 297.676L180.892 297.676L186.354 283.706ZM203.06 290.237L208.522 276.267L208.522 276.267L203.06 290.237ZM223.89 302.265L214.522 313.98L214.533 313.988L214.543 313.997L223.89 302.265ZM204.042 322.846L214.649 333.452L214.649 333.452L204.042 322.846ZM139.995 345.928L141.389 330.993L124.895 329.453L124.995 346.019L139.995 345.928ZM139.092 358.438L153.921 360.694L153.921 360.693L139.092 358.438ZM136.395 376.173L121.565 373.917L121.565 373.918L136.395 376.173ZM186.354 462.706L180.892 476.676L180.893 476.676L186.354 462.706ZM203.061 469.237L208.523 455.267L208.522 455.267L203.061 469.237ZM223.891 481.264L233.268 469.556L233.258 469.548L223.891 481.264ZM204.042 501.846L214.648 512.452L214.649 512.452L204.042 501.846ZM189.199 513.553L189.199 528.553L193.426 528.553L197.032 526.345L189.199 513.553ZM142.859 513.553L142.859 528.553L142.859 528.553L142.859 513.553ZM129.869 506.053L142.86 498.553L142.86 498.553L129.869 506.053ZM-1.01603e-05 281.113L-10.6064 270.506L-18.7455 278.645L-12.9904 288.613L-1.01603e-05 281.113ZM360.904 11.2099L371.511 21.8165C375.051 18.276 378.885 15.2398 382.927 12.6985L374.942 -1.63893e-05L366.958 -12.6986C361.031 -8.97188 355.436 -4.53511 350.298 0.603378L360.904 11.2099ZM374.942 -1.63893e-05L374.942 15L422.039 15L422.039 -1.84479e-05L422.039 -15L374.942 -15L374.942 -1.63893e-05ZM422.039 -1.84479e-05L422.039 15L422.039 15L435.029 7.49998L448.02 -1.95836e-05C442.661 -9.28194 432.757 -15 422.039 -15L422.039 -1.84479e-05ZM435.029 7.49998L422.039 15L551.742 239.653L564.732 232.153L577.723 224.653L448.02 -1.95836e-05L435.029 7.49998ZM564.732 232.153L554.126 221.547L529.753 245.921L540.359 256.527L550.966 267.134L575.339 242.76L564.732 232.153ZM540.359 256.527L529.753 267.134L554.308 291.69L564.915 281.084L575.522 270.478L550.966 245.921L540.359 256.527ZM564.915 281.084L551.925 273.584L422.039 498.553L435.029 506.053L448.02 513.553L577.905 288.584L564.915 281.084ZM435.029 506.053L422.039 498.553L422.039 498.553L422.039 513.553L422.039 528.553C432.757 528.553 442.661 522.835 448.02 513.553L435.029 506.053ZM422.039 513.553L422.039 498.553L375.748 498.553L375.748 513.553L375.748 528.553L422.039 528.553L422.039 513.553ZM375.748 513.553L383.58 500.76C379.297 498.137 375.241 494.967 371.512 491.238L360.905 501.845L350.299 512.451C355.714 517.866 361.635 522.5 367.916 526.346L375.748 513.553ZM360.905 501.845L371.512 491.238L356.043 475.769L345.437 486.376L334.83 496.983L350.299 512.451L360.905 501.845ZM345.437 486.376L354.804 498.091L361.196 492.98L351.829 481.265L342.462 469.549L336.069 474.66L345.437 486.376ZM351.829 481.265L361.197 492.98C366.314 488.888 372.021 485.593 378.122 483.207L372.66 469.237L367.198 455.267C358.28 458.754 349.94 463.57 342.461 469.549L351.829 481.265ZM372.66 469.237L378.122 483.207L394.827 476.676L389.365 462.706L383.903 448.736L367.198 455.267L372.66 469.237ZM389.365 462.706L394.827 476.676C436.192 460.503 460.831 417.828 454.155 373.918L439.325 376.173L424.496 378.428C429.064 408.471 412.205 437.67 383.903 448.736L389.365 462.706ZM439.325 376.173L454.155 373.917L451.457 356.183L436.628 358.438L421.798 360.694L424.496 378.428L439.325 376.173ZM436.628 358.438L451.457 356.184C450.875 352.35 450.639 348.471 450.748 344.591L435.754 344.17L420.76 343.749C420.601 349.402 420.944 355.073 421.798 360.693L436.628 358.438ZM435.754 344.17L432.341 329.563C411.135 334.519 387.995 328.722 371.511 312.238L360.904 322.845L350.298 333.451C374.42 357.574 408.285 365.993 439.167 358.776L435.754 344.17ZM360.904 322.845L371.511 312.238L356.043 296.77L345.437 307.376L334.83 317.982L350.297 333.451L360.904 322.845ZM345.437 307.376L354.804 319.091L361.196 313.98L351.829 302.265L342.462 290.549L336.069 295.66L345.437 307.376ZM351.829 302.265L361.197 313.98C366.314 309.888 372.02 306.593 378.121 304.207L372.659 290.237L367.197 276.267C358.278 279.754 349.939 284.57 342.461 290.549L351.829 302.265ZM372.659 290.237L378.121 304.208L394.826 297.676L389.364 283.706L383.902 269.736L367.197 276.267L372.659 290.237ZM389.364 283.706L394.826 297.676C411.902 291 426.141 279.794 436.49 265.855L424.447 256.913L412.404 247.971C405.323 257.508 395.597 265.164 383.902 269.736L389.364 283.706ZM424.447 256.913L436.49 247.971C426.141 234.033 411.903 222.826 394.827 216.15L389.365 230.12L383.903 244.09C395.597 248.662 405.322 256.318 412.404 265.855L424.447 256.913ZM389.365 230.12L394.827 216.15L378.122 209.619L372.66 223.589L367.198 237.559L383.903 244.09L389.365 230.12ZM372.66 223.589L378.122 209.619C372.02 207.233 366.313 203.938 361.197 199.847L351.829 211.562L342.461 223.278C349.94 229.258 358.281 234.073 367.198 237.559L372.66 223.589ZM351.829 211.562L361.197 199.848L354.376 194.393L345.008 206.107L335.639 217.822L342.461 223.277L351.829 211.562ZM345.008 206.107L355.614 216.714L371.512 200.817L360.905 190.21L350.299 179.603L334.401 195.501L345.008 206.107ZM360.905 190.21L371.512 200.817C387.992 184.337 411.122 178.539 432.323 183.487L435.732 168.88L439.142 154.272C408.266 147.067 374.414 155.488 350.299 179.603L360.905 190.21ZM435.732 168.88L450.73 168.605C450.663 164.942 450.905 161.275 451.457 157.642L436.628 155.388L421.798 153.133C420.991 158.442 420.637 163.801 420.735 169.155L435.732 168.88ZM436.628 155.388L451.458 157.642L454.154 139.908L439.324 137.653L424.495 135.399L421.798 153.133L436.628 155.388ZM439.324 137.653L454.154 139.908C460.83 95.9985 436.191 53.323 394.826 37.1499L389.364 51.1201L383.902 65.0903C412.204 76.156 429.063 105.355 424.495 135.399L439.324 137.653ZM389.364 51.1201L394.826 37.1499L378.121 30.6186L372.659 44.5889L367.197 58.5591L383.902 65.0903L389.364 51.1201ZM372.659 44.5889L378.121 30.6187C372.02 28.233 366.313 24.9386 361.197 20.8472L351.829 32.5625L342.461 44.2778C349.94 50.2575 358.279 55.0724 367.197 58.559L372.659 44.5889ZM351.829 32.5625L361.197 20.8472L354.374 15.3921L345.007 27.1074L335.639 38.8227L342.462 44.2778L351.829 32.5625ZM345.007 27.1074L355.613 37.714L371.511 21.8165L360.904 11.2099L350.298 0.603317L334.4 16.5008L345.007 27.1074ZM270.359 256.527L280.966 245.921L235.334 200.288L224.728 210.895L214.121 221.501L259.753 267.134L270.359 256.527ZM224.728 210.895L234.096 222.609L247.267 212.076L237.899 200.361L228.531 188.646L215.359 199.18L224.728 210.895ZM237.899 200.361L247.267 212.077C248.794 210.855 250.367 209.711 251.978 208.643L243.688 196.142L235.399 183.64C233.059 185.192 230.766 186.86 228.532 188.646L237.899 200.361ZM243.688 196.142L257.663 190.691C248.562 167.354 253.457 139.869 272.262 121.065L261.655 110.458L251.049 99.8514C223.524 127.376 216.442 167.563 229.714 201.592L243.688 196.142ZM261.655 110.458L272.262 121.065L293.08 100.247L282.474 89.6406L271.867 79.0338L251.049 99.8512L261.655 110.458ZM282.474 89.6406L293.08 79.0339L235.333 21.2878L224.727 31.8945L214.12 42.5012L271.867 100.247L282.474 89.6406ZM224.727 31.8945L234.094 43.6102L247.267 33.078L237.899 21.3623L228.532 9.64663L215.359 20.1789L224.727 31.8945ZM237.899 21.3623L247.267 33.0775C271.001 14.0993 304.717 14.0985 328.452 33.0759L337.819 21.3603L347.187 9.64482C312.497 -18.0916 263.22 -18.0901 228.532 9.64705L237.899 21.3623ZM337.819 21.3603L328.452 33.0757L335.639 38.8228L345.007 27.1074L354.374 15.392L347.187 9.64497L337.819 21.3603ZM345.007 27.1074L334.4 16.5008L271.867 79.034L282.474 89.6406L293.08 100.247L355.613 37.714L345.007 27.1074ZM282.474 89.6406L271.867 100.247L292.684 121.065L303.291 110.458L313.898 99.8514L293.08 79.034L282.474 89.6406ZM303.291 110.458L292.684 121.065C310.376 138.756 315.757 164.125 308.748 186.515L323.062 190.996L337.377 195.477C347.59 162.855 339.792 125.746 313.898 99.8515L303.291 110.458ZM323.062 190.996L316.458 204.464C320.65 206.519 324.674 209.055 328.453 212.076L337.82 200.36L347.188 188.645C341.683 184.243 335.802 180.537 329.667 177.528L323.062 190.996ZM337.82 200.36L328.453 212.076L335.64 217.823L345.008 206.107L354.375 194.392L347.188 188.645L337.82 200.36ZM345.008 206.107L334.401 195.501L283.98 245.921L294.587 256.527L305.193 267.134L355.614 216.714L345.008 206.107ZM294.587 256.527L283.98 267.134L334.83 317.983L345.437 307.376L356.043 296.769L305.193 245.921L294.587 256.527ZM345.437 307.376L336.07 295.66L328.451 301.751L337.818 313.467L347.185 325.183L354.803 319.092L345.437 307.376ZM337.818 313.467L328.451 301.751C324.723 304.732 320.756 307.24 316.626 309.28L323.27 322.729L329.913 336.177C335.96 333.19 341.756 329.524 347.186 325.182L337.818 313.467ZM323.27 322.729L308.916 327.084C315.669 349.341 310.233 374.44 292.685 391.988L303.292 402.595L313.899 413.201C339.582 387.517 347.462 350.8 337.623 318.373L323.27 322.729ZM303.292 402.595L292.685 391.988L271.867 412.806L282.474 423.413L293.08 434.02L313.899 413.201L303.292 402.595ZM282.474 423.413L271.867 434.02L334.83 496.983L345.437 486.376L356.043 475.769L293.08 412.806L282.474 423.413ZM345.437 486.376L336.069 474.661L328.452 480.752L337.819 492.467L347.187 504.182L354.804 498.091L345.437 486.376ZM337.819 492.467L328.452 480.751C304.718 499.728 271.002 499.728 247.268 480.75L237.9 492.466L228.533 504.181C263.221 531.917 312.498 531.918 347.187 504.182L337.819 492.467ZM237.9 492.466L247.268 480.75L233.665 469.874L224.298 481.59L214.931 493.305L228.533 504.181L237.9 492.466ZM224.298 481.59L234.905 492.196L293.08 434.02L282.474 423.413L271.867 412.807L213.691 470.983L224.298 481.59ZM282.474 423.413L293.08 412.806L272.263 391.989L261.656 402.596L251.05 413.202L271.867 434.02L282.474 423.413ZM261.656 402.596L272.263 391.989C253.593 373.319 248.633 346.094 257.471 322.864L243.451 317.53L229.431 312.197C216.546 346.066 223.723 385.875 251.05 413.202L261.656 402.596ZM243.451 317.53L251.784 305.058C250.248 304.032 248.741 302.929 247.267 301.75L237.899 313.466L228.532 325.181C230.669 326.89 232.867 328.498 235.118 330.002L243.451 317.53ZM237.899 313.466L247.267 301.751L233.666 290.875L224.298 302.59L214.93 314.305L228.532 325.181L237.899 313.466ZM224.298 302.59L234.905 313.196L280.966 267.134L270.359 256.527L259.753 245.921L213.691 291.983L224.298 302.59ZM24.5869 256.527L35.1933 245.921L10.789 221.517L0.182605 232.124L-10.4238 242.731L13.9805 267.134L24.5869 256.527ZM0.182605 232.124L13.173 239.624L142.86 15L129.869 7.49999L116.879 -5.10893e-06L-12.8078 224.624L0.182605 232.124ZM129.869 7.49999L142.86 15L142.859 15L142.859 -6.24458e-06L142.859 -15C132.141 -14.9999 122.238 -9.28193 116.879 -5.10893e-06L129.869 7.49999ZM142.859 -6.24458e-06L142.859 15L190.003 15L190.003 -8.30529e-06L190.003 -15L142.859 -15L142.859 -6.24458e-06ZM190.003 -8.30529e-06L182.019 12.6985C186.062 15.241 189.896 18.2767 193.435 21.8156L204.042 11.209L214.649 0.602347C209.509 -4.53761 203.912 -8.97309 197.987 -12.6986L190.003 -8.30529e-06ZM204.042 11.209L193.435 21.8153L214.12 42.5009L224.727 31.8945L235.333 21.2882L214.649 0.602652L204.042 11.209ZM224.727 31.8945L215.349 20.1868L214.511 20.8587L223.888 32.5664L233.265 44.2741L234.104 43.6022L224.727 31.8945ZM223.888 32.5664L214.521 20.8502C209.407 24.9389 203.702 28.2314 197.601 30.6168L203.063 44.5869L208.526 58.5571C217.439 55.072 225.777 50.2604 233.254 44.2826L223.888 32.5664ZM203.063 44.5869L197.601 30.6168L180.892 37.15L186.354 51.1201L191.817 65.0902L208.526 58.557L203.063 44.5869ZM186.354 51.1201L180.892 37.1499C139.527 53.3229 114.889 95.9984 121.565 139.908L136.395 137.653L151.224 135.399C146.656 105.355 163.514 76.156 191.817 65.0903L186.354 51.1201ZM136.395 137.653L121.565 139.908L124.261 157.642L139.091 155.388L153.92 153.133L151.224 135.399L136.395 137.653ZM139.091 155.388L124.261 157.642C124.741 160.798 124.986 163.986 124.997 167.181L139.997 167.127L154.997 167.073C154.98 162.419 154.624 157.759 153.92 153.133L139.091 155.388ZM139.997 167.127L141.391 182.062C160.025 180.323 179.201 186.581 193.435 200.816L204.042 190.209L214.649 179.602C193.834 158.788 165.745 149.659 138.604 152.192L139.997 167.127ZM204.042 190.209L193.435 200.816L214.121 221.501L224.728 210.895L235.334 200.288L214.649 179.602L204.042 190.209ZM224.728 210.895L215.365 199.175L214.526 199.846L223.888 211.565L233.25 223.285L234.09 222.614L224.728 210.895ZM223.888 211.565L214.521 199.849C209.406 203.939 203.701 207.232 197.602 209.617L203.064 223.587L208.527 237.557C217.441 234.071 225.778 229.258 233.254 223.282L223.888 211.565ZM203.064 223.587L197.602 209.617L180.892 216.15L186.354 230.12L191.817 244.09L208.526 237.557L203.064 223.587ZM186.354 230.12L180.892 216.15C163.817 222.826 149.577 234.033 139.227 247.972L151.27 256.914L163.314 265.856C170.395 256.319 180.122 248.663 191.817 244.09L186.354 230.12ZM151.27 256.914L139.227 265.856C149.578 279.795 163.818 291 180.892 297.676L186.354 283.706L191.817 269.736C180.121 265.163 170.395 257.508 163.313 247.972L151.27 256.914ZM186.354 283.706L180.892 297.676L197.598 304.208L203.06 290.237L208.522 276.267L191.816 269.736L186.354 283.706ZM203.06 290.237L197.597 304.207C203.698 306.593 209.405 309.888 214.522 313.98L223.89 302.265L233.257 290.549C225.78 284.57 217.44 279.754 208.522 276.267L203.06 290.237ZM223.89 302.265L214.543 313.997L214.951 314.322L224.298 302.59L233.644 290.858L233.236 290.532L223.89 302.265ZM224.298 302.59L213.691 291.983L193.435 312.239L204.042 322.846L214.649 333.452L234.904 313.196L224.298 302.59ZM204.042 322.846L193.435 312.239C179.2 326.474 160.023 332.732 141.389 330.993L139.995 345.928L138.601 360.863C165.743 363.396 193.834 354.267 214.649 333.452L204.042 322.846ZM139.995 345.928L124.995 346.019C125.016 349.426 124.773 352.825 124.262 356.184L139.092 358.438L153.921 360.693C154.671 355.76 155.025 350.792 154.995 345.837L139.995 345.928ZM139.092 358.438L124.262 356.183L121.565 373.917L136.395 376.173L151.224 378.428L153.921 360.694L139.092 358.438ZM136.395 376.173L121.565 373.918C114.889 417.828 139.528 460.503 180.892 476.676L186.354 462.706L191.817 448.736C163.514 437.67 146.656 408.471 151.224 378.428L136.395 376.173ZM186.354 462.706L180.893 476.676L197.599 483.208L203.061 469.237L208.522 455.267L191.816 448.736L186.354 462.706ZM203.061 469.237L197.598 483.207C203.7 485.593 209.406 488.888 214.523 492.979L223.891 481.264L233.258 469.548C225.78 463.569 217.44 458.754 208.523 455.267L203.061 469.237ZM223.891 481.264L214.513 492.971L214.921 493.297L224.298 481.59L233.675 469.882L233.268 469.556L223.891 481.264ZM224.298 481.59L213.691 470.983L193.435 491.239L204.042 501.846L214.649 512.452L234.904 492.196L224.298 481.59ZM204.042 501.846L193.436 491.239C189.707 494.967 185.651 498.137 181.367 500.76L189.199 513.553L197.032 526.345C203.311 522.501 209.233 517.868 214.648 512.452L204.042 501.846ZM189.199 513.553L189.199 498.553L142.859 498.553L142.859 513.553L142.859 528.553L189.199 528.553L189.199 513.553ZM142.859 513.553L142.859 498.553L142.86 498.553L129.869 506.053L116.879 513.553C122.238 522.835 132.141 528.553 142.859 528.553L142.859 513.553ZM129.869 506.053L142.86 498.553L12.9904 273.613L-1.01603e-05 281.113L-12.9904 288.613L116.879 513.553L129.869 506.053ZM-1.01603e-05 281.113L10.6064 291.72L35.1933 267.134L24.5869 256.527L13.9805 245.921L-10.6064 270.506L-1.01603e-05 281.113Z" fill="#424A29" mask="url(#path-1-inside-1_601_25)"/>
</svg>